<svg width="64" height="64" viewBox="0 0 64 64" fill="none" xmlns="http://www.w3.org/2000/svg">
<path fill-rule="evenodd" clip-rule="evenodd" d="M15.8828 4.28276L12.4857 14.6453L12.375 15.2427V59.1816C12.375 59.9183 12.9675 60.5026 13.6618 60.5026H50.3337C51.028 60.5026 51.6205 59.9183 51.6205 59.1816V15.2427L51.5098 14.6453L48.1133 4.28464C47.9056 3.80592 47.4385 3.49805 46.9323 3.49805H45.6673L48.0522 10.7453L48.0491 10.7463L48.7064 12.3647L48.7073 12.3669C49.4485 14.2091 48.1236 16.2548 46.1275 16.2548H18.0405C16.1309 16.2548 14.8166 14.3792 15.3795 12.5784L15.3796 12.5782L15.9486 10.7598L18.1316 3.49805H17.0632C16.5517 3.49805 16.0886 3.80051 15.8828 4.28276ZM19.6979 3.49805H44.0882L46.0615 9.49455H17.8953L19.6979 3.49805ZM14.4844 3.73925C14.9147 2.68069 15.9323 1.99805 17.0632 1.99805H46.9323C48.0679 1.99805 49.081 2.69517 49.5098 3.73598L49.5204 3.76166L49.529 3.78805L52.9508 14.2257L52.9664 14.2733L52.9755 14.3227L53.1079 15.0372L53.1205 15.1049V15.1738V59.1816C53.1205 60.7231 51.8799 62.0026 50.3337 62.0026H13.6618C12.1156 62.0026 10.875 60.7231 10.875 59.1816V15.1738V15.1049L10.8876 15.0371L11.0199 14.3227L11.0291 14.2733L11.0447 14.2257L14.4665 3.78805L14.4746 3.76334L14.4844 3.73925ZM43.2148 13.3199C43.7341 13.4648 44.335 13.3302 44.5489 12.9989C44.7729 12.6675 44.5285 12.274 44.0091 12.1291C43.4897 11.9841 42.8889 12.1187 42.675 12.4501C42.451 12.7814 42.6954 13.1749 43.2148 13.3199ZM38.9082 12.9989C38.6944 13.3303 38.0935 13.4649 37.5741 13.3199C37.0548 13.1749 36.8104 12.7815 37.0344 12.4501C37.2483 12.1188 37.8491 11.9841 38.3685 12.1291C38.8879 12.2741 39.1323 12.6676 38.9082 12.9989ZM41.7284 12.9989C41.5145 13.3303 40.9137 13.4649 40.3943 13.3199C39.875 13.1749 39.6305 12.7815 39.8546 12.4501C40.0684 12.1188 40.6693 11.9841 41.1887 12.1291C41.708 12.2741 41.9525 12.6676 41.7284 12.9989ZM17.4941 10.8595L17.4858 10.8566L17.4729 10.8997C17.4833 10.8847 17.49 10.8708 17.4941 10.8595ZM46.531 10.9945H17.4444L17.3839 11.1957L17.3815 11.2037L17.3814 11.2037L16.8112 13.0259L16.8111 13.0262C16.5392 13.8968 17.1802 14.7548 18.0405 14.7548H46.1275C47.0233 14.7548 47.6739 13.8189 47.3161 12.9277L47.3157 12.9268L46.531 10.9945ZM19.7227 11.9755C19.3084 11.9755 18.9727 12.3113 18.9727 12.7255C18.9727 13.1397 19.3084 13.4755 19.7227 13.4755H24.1714C24.5856 13.4755 24.9214 13.1397 24.9214 12.7255C24.9214 12.3113 24.5856 11.9755 24.1714 11.9755H19.7227Z" fill="black"/>
</svg>
