<svg width="64" height="64" viewBox="0 0 64 64" fill="none" xmlns="http://www.w3.org/2000/svg">
<path fill-rule="evenodd" clip-rule="evenodd" d="M9 4.75C9 3.23122 10.2312 2 11.75 2H52.25C53.7688 2 55 3.23122 55 4.75V14.9804L55.0003 15L55 15.0196V59.25C55 60.7688 53.7688 62 52.25 62H11.75C10.2312 62 9 60.7688 9 59.25V15V4.75ZM53.5 4.75V14.25H10.5V4.75C10.5 4.05964 11.0596 3.5 11.75 3.5H52.25C52.9404 3.5 53.5 4.05964 53.5 4.75ZM10.5 59.25V15.75H53.5V59.25C53.5 59.9404 52.9404 60.5 52.25 60.5H11.75C11.0596 60.5 10.5 59.9404 10.5 59.25ZM30.25 8.89404C30.25 7.92804 31.034 7.14404 32 7.14404C32.966 7.14404 33.75 7.92804 33.75 8.89404C33.75 9.86004 32.966 10.644 32 10.644C31.034 10.644 30.25 9.86004 30.25 8.89404ZM32 22.75C23.0254 22.75 15.75 30.0254 15.75 39C15.75 47.9746 23.0254 55.25 32 55.25C40.9746 55.25 48.25 47.9746 48.25 39C48.25 30.0254 40.9746 22.75 32 22.75ZM14.25 39C14.25 29.1969 22.1969 21.25 32 21.25C41.8031 21.25 49.75 29.1969 49.75 39C49.75 48.8031 41.8031 56.75 32 56.75C22.1969 56.75 14.25 48.8031 14.25 39ZM27.9871 35.0866C28.311 34.8284 28.3644 34.3566 28.1062 34.0326C27.8481 33.7087 27.3762 33.6553 27.0523 33.9135C26.646 34.2372 26.318 34.6483 26.0925 35.1163C25.8671 35.5843 25.75 36.097 25.75 36.6165C25.75 37.1359 25.8671 37.6487 26.0925 38.1166C26.3112 38.5706 26.6264 38.971 27.0159 39.2901C27.4743 39.7576 27.6635 40.1953 27.7251 40.5737C27.7894 40.9684 27.7239 41.3573 27.5882 41.7201C27.4519 42.0847 27.2526 42.4007 27.0815 42.6296C26.9971 42.7425 26.9226 42.8303 26.871 42.888C26.8453 42.9167 26.8256 42.9376 26.8136 42.9502L26.8024 42.9617L27.3269 43.4978C26.8024 42.9617 26.8022 42.962 26.8019 42.9622L26.8015 42.9626L26.8012 42.9629C26.5063 43.2527 26.5015 43.7267 26.7909 44.0223C27.0805 44.3184 27.5554 44.3236 27.8514 44.0339L27.3319 43.5028C27.8514 44.0339 27.8517 44.0336 27.852 44.0334L27.8525 44.0328L27.8539 44.0315L27.8572 44.0282L27.8666 44.0188C27.874 44.0113 27.8837 44.0015 27.8954 43.9892C27.919 43.9647 27.9508 43.9307 27.9891 43.8879C28.0656 43.8024 28.1687 43.6806 28.2831 43.5275C28.5096 43.2245 28.7922 42.7829 28.9932 42.2454C29.1948 41.7061 29.3221 41.0484 29.2056 40.3328C29.0877 39.6082 28.7289 38.8815 28.05 38.2026L28.0201 38.1727L27.9871 38.1464C27.7572 37.9632 27.5715 37.7305 27.4439 37.4656C27.3163 37.2007 27.25 36.9105 27.25 36.6165C27.25 36.3225 27.3163 36.0322 27.4439 35.7674C27.5715 35.5025 27.7572 35.2698 27.9871 35.0866ZM32.4871 35.0866C32.811 34.8284 32.8644 34.3566 32.6062 34.0326C32.3481 33.7087 31.8762 33.6553 31.5523 33.9135C31.146 34.2372 30.818 34.6483 30.5925 35.1163C30.3671 35.5843 30.25 36.097 30.25 36.6165C30.25 37.1359 30.3671 37.6487 30.5925 38.1166C30.8112 38.5706 31.1264 38.971 31.5159 39.2901C31.9743 39.7576 32.1635 40.1953 32.2251 40.5737C32.2894 40.9684 32.2239 41.3573 32.0882 41.7201C31.9519 42.0847 31.7526 42.4007 31.5815 42.6296C31.4971 42.7425 31.4226 42.8303 31.371 42.888C31.3453 42.9167 31.3256 42.9376 31.3136 42.9502L31.3024 42.9617L31.8269 43.4978C31.3024 42.9617 31.3022 42.962 31.3019 42.9622L31.3015 42.9626L31.3012 42.9629C31.0063 43.2527 31.0015 43.7267 31.2909 44.0223C31.5805 44.3184 32.0554 44.3236 32.3514 44.0339L31.8319 43.5028C32.3515 44.0339 32.3517 44.0336 32.352 44.0334L32.3525 44.0328L32.3539 44.0315L32.3572 44.0282L32.3666 44.0188C32.374 44.0113 32.3837 44.0015 32.3954 43.9892C32.419 43.9647 32.4508 43.9307 32.4891 43.8879C32.5656 43.8024 32.6687 43.6806 32.7831 43.5275C33.0096 43.2245 33.2922 42.7829 33.4932 42.2454C33.6948 41.7061 33.8221 41.0484 33.7056 40.3328C33.5877 39.6082 33.2289 38.8815 32.55 38.2026L32.5201 38.1727L32.4871 38.1464C32.2572 37.9632 32.0715 37.7305 31.9439 37.4656C31.8163 37.2007 31.75 36.9105 31.75 36.6165C31.75 36.3225 31.8163 36.0322 31.9439 35.7674C32.0715 35.5025 32.2572 35.2698 32.4871 35.0866ZM37.1062 34.0326C37.3644 34.3566 37.311 34.8284 36.9871 35.0866C36.7572 35.2698 36.5715 35.5025 36.4439 35.7674C36.3163 36.0322 36.25 36.3225 36.25 36.6165C36.25 36.9105 36.3163 37.2007 36.4439 37.4656C36.5715 37.7305 36.7572 37.9632 36.9871 38.1464L37.0201 38.1727L37.05 38.2026C37.7289 38.8815 38.0877 39.6082 38.2056 40.3328C38.3221 41.0484 38.1948 41.7061 37.9932 42.2454C37.7922 42.7829 37.5096 43.2245 37.2831 43.5275C37.1687 43.6806 37.0656 43.8024 36.9891 43.8879C36.9508 43.9307 36.919 43.9647 36.8954 43.9892L36.8792 44.0059L36.8666 44.0188L36.8572 44.0282L36.8539 44.0315L36.8525 44.0328L36.852 44.0334C36.8517 44.0336 36.8515 44.0339 36.3319 43.5028L36.8514 44.0339C36.5554 44.3236 36.0805 44.3184 35.7909 44.0223C35.5015 43.7267 35.5063 43.2527 35.8012 42.9629L35.8015 42.9626L35.8019 42.9622C35.8022 42.962 35.8024 42.9617 36.3269 43.4978L35.8024 42.9617L35.8136 42.9502C35.8256 42.9376 35.8453 42.9167 35.871 42.888C35.9226 42.8303 35.9971 42.7425 36.0815 42.6296C36.2526 42.4007 36.4519 42.0847 36.5882 41.7201C36.7239 41.3573 36.7894 40.9684 36.7251 40.5737C36.6635 40.1953 36.4743 39.7576 36.0159 39.2901C35.6264 38.971 35.3112 38.5706 35.0925 38.1166C34.8671 37.6487 34.75 37.1359 34.75 36.6165C34.75 36.097 34.8671 35.5843 35.0925 35.1163C35.318 34.6483 35.646 34.2372 36.0523 33.9135C36.3762 33.6553 36.8481 33.7087 37.1062 34.0326ZM28.829 27.1645C25.0136 28.1869 22.1038 30.9012 20.6906 34.2869C20.531 34.6692 20.0918 34.8497 19.7096 34.6902C19.3273 34.5306 19.1468 34.0914 19.3063 33.7091C20.8909 29.9128 24.1573 26.8634 28.4408 25.7156C28.8409 25.6084 29.2521 25.8459 29.3593 26.246C29.4665 26.6461 29.2291 27.0573 28.829 27.1645ZM43.3094 43.7092C41.8962 47.0949 38.9864 49.8092 35.171 50.8316C34.7709 50.9388 34.5335 51.35 34.6407 51.7501C34.7479 52.1502 35.1591 52.3877 35.5592 52.2805C39.8427 51.1327 43.1091 48.0833 44.6937 44.287C44.8532 43.9047 44.6727 43.4655 44.2904 43.3059C43.9082 43.1464 43.469 43.3269 43.3094 43.7092Z" fill="black"/>
</svg>
