<svg width="64" height="64" viewBox="0 0 64 64" fill="none" xmlns="http://www.w3.org/2000/svg">
<path fill-rule="evenodd" clip-rule="evenodd" d="M16.75 2C15.2312 2 14 3.23122 14 4.75V59.25C14 60.7688 15.2312 62 16.75 62H47.25C48.7688 62 50 60.7688 50 59.25V4.75C50 3.23122 48.7688 2 47.25 2H28.0586H16.75ZM27.3086 3.5H16.75C16.0596 3.5 15.5 4.05964 15.5 4.75V59.25C15.5 59.9404 16.0596 60.5 16.75 60.5H27.3086V3.5ZM28.8086 60.5V3.5H47.25C47.9404 3.5 48.5 4.05964 48.5 4.75V59.25C48.5 59.9404 47.9404 60.5 47.25 60.5H28.8086Z" fill="black"/>
<path d="M14.75 34.2246H49.2464" stroke="black" stroke-width="1.5"/>
<path d="M32.5 8.14648H44.998C45.1361 8.14648 45.248 8.25841 45.248 8.39648V28.5645C45.248 28.7025 45.1361 28.8145 44.998 28.8145H32.5C32.3619 28.8145 32.25 28.7025 32.25 28.5645V8.39648C32.25 8.25841 32.3619 8.14648 32.5 8.14648Z" stroke="black" stroke-width="1.5" stroke-linecap="round" stroke-linejoin="round"/>
<path fill-rule="evenodd" clip-rule="evenodd" d="M17.2344 18.1191C17.2344 17.1526 18.0179 16.3691 18.9844 16.3691H24.0789C25.0454 16.3691 25.8289 17.1526 25.8289 18.1191V28.0083C25.8289 28.9748 25.0454 29.7583 24.0789 29.7583H18.9844C18.0179 29.7583 17.2344 28.9748 17.2344 28.0083V18.1191ZM18.9844 17.8691C18.8463 17.8691 18.7344 17.9811 18.7344 18.1191V20.332H24.3289V18.1191C24.3289 17.9811 24.217 17.8691 24.0789 17.8691H18.9844ZM18.7344 28.0083V21.832H20.7812V25.0004C20.7812 25.4146 21.117 25.7504 21.5312 25.7504C21.9455 25.7504 22.2812 25.4146 22.2812 25.0004V21.832H24.3289V28.0083C24.3289 28.1464 24.217 28.2583 24.0789 28.2583H18.9844C18.8463 28.2583 18.7344 28.1464 18.7344 28.0083Z" fill="black"/>
</svg>
